<?xml version="1.0" encoding="UTF-8"?>
<svg xmlns="http://www.w3.org/2000/svg" xmlns:xlink="http://www.w3.org/1999/xlink" width="32px" height="32px" viewBox="0 0 32 32" version="1.1">
<g id="surface1">
<path style=" stroke:none;fill-rule:nonzero;fill:rgb(25.490196%,27.843137%,32.54902%);fill-opacity:1;" d="M 30 2 L 30 30 L 2 30 L 2 2 L 30 2 M 31 1 L 1 1 L 1 31 L 31 31 Z M 31 1 "/>
<path style=" stroke:none;fill-rule:nonzero;fill:rgb(25.490196%,27.843137%,32.54902%);fill-opacity:1;" d="M 30 2 L 30 30 L 2 30 L 2 2 L 30 2 M 31 1 L 1 1 L 1 31 L 31 31 Z M 31 1 "/>
<path style=" stroke:none;fill-rule:nonzero;fill:rgb(25.490196%,27.843137%,32.54902%);fill-opacity:1;" d="M 18.140625 9.160156 C 16.613281 9.714844 15.644531 11.152344 15.757812 12.722656 L 15.792969 13.328125 L 15.179688 13.253906 C 12.953125 12.96875 11.011719 12.003906 9.359375 10.386719 L 8.550781 9.578125 L 8.34375 10.175781 C 7.902344 11.496094 8.183594 12.894531 9.101562 13.835938 C 9.589844 14.355469 9.480469 14.429688 8.636719 14.117188 C 8.339844 14.019531 8.085938 13.945312 8.058594 13.984375 C 7.976562 14.070312 8.269531 15.195312 8.5 15.640625 C 8.816406 16.257812 9.464844 16.863281 10.175781 17.222656 L 10.777344 17.507812 L 10.066406 17.519531 C 9.382812 17.519531 9.359375 17.53125 9.429688 17.792969 C 9.675781 18.597656 10.640625 19.449219 11.71875 19.820312 L 12.476562 20.078125 L 11.816406 20.476562 C 10.816406 21.050781 9.691406 21.367188 8.539062 21.390625 C 7.988281 21.402344 7.535156 21.453125 7.535156 21.488281 C 7.535156 21.613281 9.027344 22.304688 9.894531 22.578125 C 12.5 23.382812 15.597656 23.035156 17.921875 21.664062 C 19.570312 20.6875 21.222656 18.742188 21.992188 16.863281 C 22.410156 15.863281 22.824219 14.03125 22.824219 13.15625 C 22.824219 12.585938 22.863281 12.511719 23.546875 11.832031 C 23.953125 11.4375 24.332031 11.003906 24.402344 10.878906 C 24.527344 10.644531 24.515625 10.644531 23.890625 10.855469 C 22.851562 11.226562 22.703125 11.175781 23.21875 10.621094 C 23.597656 10.222656 24.050781 9.507812 24.050781 9.296875 C 24.050781 9.261719 23.867188 9.320312 23.65625 9.433594 C 23.4375 9.558594 22.949219 9.742188 22.582031 9.851562 L 21.921875 10.0625 L 21.320312 9.65625 C 20.992188 9.433594 20.527344 9.183594 20.28125 9.109375 C 19.65625 8.9375 18.703125 8.960938 18.140625 9.160156 Z M 18.140625 9.160156 "/>
</g>
</svg>
