<?xml version="1.0" encoding="UTF-8"?>
<svg width="16px" height="16px" viewBox="0 0 16 16" version="1.1" xmlns="http://www.w3.org/2000/svg" xmlns:xlink="http://www.w3.org/1999/xlink">
    <title>iconGlobe</title>
    <g id="Symbols" stroke="none" stroke-width="1" fill="none" fill-rule="evenodd">
        <g id="iconGlobe" fill="#1CA6A3">
            <path d="M8,16 C12.4193548,16 16,12.4193548 16,8 C16,3.58064516 12.4193548,0 8,0 C3.58064516,0 0,3.58064516 0,8 C0,12.4193548 3.58064516,16 8,16 Z M10.5193422,4.90322581 L5.48065776,4.90322581 C6.01934224,2.45482611 7.13224546,1.03225806 8,1.03225806 C8.86775454,1.03225806 9.98065776,2.45482611 10.5193422,4.90322581 Z M14.2322644,4.90322581 L11.570974,4.90322581 C11.2806515,3.47095514 10.7935358,2.2516066 10.1774194,1.38388357 C11.9516129,1.97095514 13.4096837,3.2516066 14.2322644,4.90322581 Z M4.42902596,4.90322581 L1.76773564,4.90322581 C2.59031628,3.2516066 4.0483871,1.97095514 5.82258065,1.38388357 C5.20967742,2.2483934 4.71934854,3.46774194 4.42902596,4.90322581 Z M10.7000063,10.0645161 L5.2999937,10.0645161 C5.21289062,9.42581275 5.16129032,8.73872228 5.16129032,8 C5.16129032,7.26127772 5.21289062,6.57418725 5.2999937,5.93548387 L10.7000063,5.93548387 C10.7871094,6.57418725 10.8387097,7.26127772 10.8387097,8 C10.8387097,8.73872228 10.7871094,9.42581275 10.7000063,10.0645161 Z M4.26452243,10.0645161 L1.34516759,10.0645161 C1.14194808,9.41289693 1.03225806,8.71934854 1.03225806,8 C1.03225806,7.28065146 1.14194808,6.58710307 1.34516759,5.93548387 L4.26452243,5.93548387 C4.18063256,6.59677419 4.12903226,7.28386467 4.12903226,8 C4.12903226,8.71613533 4.17741935,9.40322581 4.26452243,10.0645161 Z M14.6548324,10.0645161 L11.7354776,10.0645161 C11.8193674,9.40322581 11.8709677,8.71613533 11.8709677,8 C11.8709677,7.28386467 11.8225806,6.59677419 11.7354776,5.93548387 L14.6548324,5.93548387 C14.8580519,6.58710307 14.9677419,7.28065146 14.9677419,8 C14.9677419,8.71934854 14.8580519,9.41289693 14.6548324,10.0645161 Z M5.82258065,14.6161164 C4.0483871,14.0290449 2.59031628,12.7483934 1.76773564,11.0967742 L4.42902596,11.0967742 C4.71934854,12.5290449 5.20646421,13.7483934 5.82258065,14.6161164 Z M8,14.9677419 C7.13224546,14.9677419 6.01934224,13.5451739 5.48065776,11.0967742 L10.5193422,11.0967742 C9.98065776,13.5451739 8.86775454,14.9677419 8,14.9677419 Z M10.1774194,14.6161164 C10.7903226,13.7516066 11.2806515,12.5322581 11.570974,11.0967742 L14.2322644,11.0967742 C13.4096837,12.7483934 11.9516129,14.0290449 10.1774194,14.6161164 Z" id="icon-language"></path>
        </g>
    </g>
</svg>