<svg xmlns="http://www.w3.org/2000/svg" xmlns:xlink="http://www.w3.org/1999/xlink" viewBox="0 0 157.6 158.75"><defs><style>.cls-1{fill:none;}.cls-2{clip-path:url(#clip-path);}.cls-3{fill:#bb2c26;}.cls-4{fill:#ee3524;}.cls-5{fill:#fff;}</style><clipPath id="clip-path" transform="translate(19.9 20.36)"><rect class="cls-1" width="118" height="118" rx="10.42"/></clipPath></defs><g id="Layer_2" data-name="Layer 2"><g id="Logos"><g id="vertical-1"><g class="cls-2"><rect class="cls-3" x="19.9" y="20.36" width="118" height="118" rx="10.42"/><path class="cls-4" d="M58.9-20.36C15.38-20.36-19.9,15.18-19.9,59s35.28,79.38,78.8,79.38S137.7,102.84,137.7,59,102.41-20.36,58.9-20.36Zm.76,137c-31.81,0-57.6-26-57.6-58s25.79-58,57.6-58,57.62,26,57.62,58S91.49,116.61,59.66,116.61Z" transform="translate(19.9 20.36)"/><path class="cls-4" d="M9,71.39s9,35,43.91,38.72,52.46-26.65,52.46-26.65L96,77.65S81.4,102.21,55.38,101.37,16.25,84.93,9,71.39Z" transform="translate(19.9 20.36)"/><path class="cls-4" d="M27.37,91.21c7.88,5.61,17.18,8.56,28.05,8.91,24.92.8,39.28-22.85,39.42-23.08l.69-1.16,1.13.71,8.77,5.46c8-13.24,6.13-28,6.13-28l-16.22.18s1.25,23.94-27.47,37.47c-12,5.63-32.05,4.71-44.13-4.79A20.85,20.85,0,0,0,27.37,91.21Z" transform="translate(19.9 20.36)"/><path class="cls-4" d="M93,53.2,92.88,51l1.37,1h17.06c-.76-13.59-10.76-25.23-10.76-25.23L81.4,38.64s12.19,9.11,1.15,30.64c-3.84,7.49-12.1,15.59-19.68,19.14C53.59,92.77,46.47,93,46.47,93c.94.38,9.9,2.17,22.48-3.42C93.76,78.54,93,54.14,93,53.2Z" transform="translate(19.9 20.36)"/><rect class="cls-5" x="42.9" y="51.36" width="71" height="53" rx="3.6"/><polygon class="cls-5" points="113.9 88.91 113.9 117.7 88.2 93.07 113.9 88.91"/></g></g></g></g></svg>