<svg xmlns="http://www.w3.org/2000/svg" xmlns:xlink="http://www.w3.org/1999/xlink" viewBox="0 0 424.9 158.75"><defs><style>.cls-1{fill:none;}.cls-2{clip-path:url(#clip-path);}.cls-3{fill:#bb2c26;}.cls-4{fill:#ee3524;}.cls-5{fill:#fff;}.cls-6{fill:#232323;}.cls-7{fill:#8d8988;}</style><clipPath id="clip-path" transform="translate(19.9 20.37)"><rect class="cls-1" width="118" height="118" rx="10.42"/></clipPath></defs><g id="Layer_2" data-name="Layer 2"><g id="Logos"><g id="vertical-1"><g class="cls-2"><rect class="cls-3" x="19.9" y="20.37" width="118" height="118" rx="10.42"/><path class="cls-4" d="M58.9-20.37C15.38-20.37-19.9,15.17-19.9,59s35.28,79.37,78.8,79.37S137.7,102.83,137.7,59,102.41-20.37,58.9-20.37Zm.76,137c-31.82,0-57.61-26-57.61-58S27.84.51,59.66.51s57.62,26,57.62,58S91.48,116.6,59.66,116.6Z" transform="translate(19.9 20.37)"/><path class="cls-4" d="M9,71.38s9,35,43.92,38.72,52.45-26.65,52.45-26.65L96,77.64S81.4,102.19,55.38,101.36,16.25,84.92,9,71.38Z" transform="translate(19.9 20.37)"/><path class="cls-4" d="M27.37,91.21c7.88,5.61,17.18,8.56,28.05,8.91,24.92.8,39.27-22.85,39.42-23.08l.68-1.16,1.14.71,8.77,5.46c8-13.24,6.12-28,6.12-28l-16.21.18s1.25,23.94-27.47,37.47c-12,5.63-32.05,4.71-44.13-4.79A20.85,20.85,0,0,0,27.37,91.21Z" transform="translate(19.9 20.37)"/><path class="cls-4" d="M92.94,53.2,92.88,51l1.36,1h17.07c-.76-13.59-10.76-25.23-10.76-25.23L81.4,38.64s12.19,9.11,1.15,30.64c-3.84,7.49-12.1,15.59-19.69,19.14C53.59,92.77,46.46,93,46.46,93c.94.38,9.91,2.17,22.49-3.42C93.75,78.54,93,54.14,92.94,53.2Z" transform="translate(19.9 20.37)"/><rect class="cls-5" x="42.9" y="51.37" width="71" height="53" rx="3.6"/><polygon class="cls-5" points="113.9 88.91 113.9 117.7 88.2 93.07 113.9 88.91"/></g><path class="cls-6" d="M168.07,19a9.34,9.34,0,0,0-3.49-2.63,10.14,10.14,0,0,0-4.15-1,12.35,12.35,0,0,0-2.08.18,5.36,5.36,0,0,0-1.91.68A4.65,4.65,0,0,0,155,17.54a3.44,3.44,0,0,0-.57,2,3.23,3.23,0,0,0,.45,1.77,4.14,4.14,0,0,0,1.34,1.24,11.69,11.69,0,0,0,2.09,1c.8.3,1.71.6,2.72.92,1.45.47,3,1,4.54,1.56a17.12,17.12,0,0,1,4.3,2.27,12,12,0,0,1,3.21,3.51A9.9,9.9,0,0,1,174.37,37,13.35,13.35,0,0,1,173,43.27a12.52,12.52,0,0,1-3.66,4.33,15.73,15.73,0,0,1-5.27,2.54A22.76,22.76,0,0,1,158,51a25.63,25.63,0,0,1-8.9-1.57A18.86,18.86,0,0,1,141.9,45l6.78-6.73a12.61,12.61,0,0,0,4.15,3.16A11.48,11.48,0,0,0,158,42.65a10.32,10.32,0,0,0,2.24-.24,5.54,5.54,0,0,0,1.91-.76,3.86,3.86,0,0,0,1.3-1.42,4.29,4.29,0,0,0,.49-2.12,3.33,3.33,0,0,0-.61-2,5.84,5.84,0,0,0-1.72-1.5,13.57,13.57,0,0,0-2.79-1.24c-1.11-.38-2.37-.78-3.79-1.21a38.27,38.27,0,0,1-4-1.54,13.28,13.28,0,0,1-3.52-2.27A10.35,10.35,0,0,1,145,25a11.09,11.09,0,0,1-.94-4.81,11.57,11.57,0,0,1,1.45-6,12.4,12.4,0,0,1,3.82-4.07,16.65,16.65,0,0,1,5.33-2.33,24.89,24.89,0,0,1,6-.74A23,23,0,0,1,168,8.37a19.34,19.34,0,0,1,6.63,3.83Z" transform="translate(19.9 20.37)"/><path class="cls-6" d="M216.69,40.89a14.75,14.75,0,0,1-3.75,5.31,17.31,17.31,0,0,1-5.88,3.45,24.31,24.31,0,0,1-15.33,0,16.52,16.52,0,0,1-5.79-3.45,14.77,14.77,0,0,1-3.66-5.31A17.85,17.85,0,0,1,181,34V8h10V33.19a11.5,11.5,0,0,0,.45,3.25,8.22,8.22,0,0,0,1.38,2.74,6.52,6.52,0,0,0,2.47,1.92,10,10,0,0,0,7.4,0,6.78,6.78,0,0,0,2.5-1.92,7.54,7.54,0,0,0,1.38-2.74,12.26,12.26,0,0,0,.42-3.25V8h11V34A17.49,17.49,0,0,1,216.69,40.89Z" transform="translate(19.9 20.37)"/><path class="cls-6" d="M256.26,49.72a43.59,43.59,0,0,1-9.65,1,30.08,30.08,0,0,1-10-1.59,23.15,23.15,0,0,1-7.83-4.48,20.42,20.42,0,0,1-5.13-6.94,21.38,21.38,0,0,1-1.85-9,21.45,21.45,0,0,1,1.88-9.09,20.26,20.26,0,0,1,5.19-6.93,23.51,23.51,0,0,1,7.77-4.4,29.48,29.48,0,0,1,9.62-1.53,31.81,31.81,0,0,1,9.94,1.5,20.89,20.89,0,0,1,7.45,4.05l-6.88,7.25a11.93,11.93,0,0,0-4.2-2.8,15.22,15.22,0,0,0-5.93-1.09,14,14,0,0,0-5.28,1,12.78,12.78,0,0,0-4.21,2.72,12.16,12.16,0,0,0-2.77,4.13,13.48,13.48,0,0,0-1,5.22,15.14,15.14,0,0,0,.9,5.31A11.21,11.21,0,0,0,237,38.19a12.14,12.14,0,0,0,4.33,2.71,16.61,16.61,0,0,0,5.89,1,23.31,23.31,0,0,0,3.63-.26,14.22,14.22,0,0,0,3.19-.86V33h-8V25h18V47.12A36.16,36.16,0,0,1,256.26,49.72Z" transform="translate(19.9 20.37)"/><path class="cls-6" d="M303.2,49.17A23.5,23.5,0,0,1,293.57,51a25.55,25.55,0,0,1-9.18-1.6,21.53,21.53,0,0,1-7.3-4.51,20.91,20.91,0,0,1-4.84-7,22.26,22.26,0,0,1-1.76-9,22.28,22.28,0,0,1,1.79-9.09,20.23,20.23,0,0,1,4.93-6.93,21.85,21.85,0,0,1,7.39-4.39A26.55,26.55,0,0,1,293.75,7a26.26,26.26,0,0,1,8.93,1.57,17.1,17.1,0,0,1,7.12,4.57l-7,6.84A8.67,8.67,0,0,0,299,17.1a13,13,0,0,0-4.85-.94,12.56,12.56,0,0,0-5,1,11.78,11.78,0,0,0-3.9,2.69,12.19,12.19,0,0,0-2.55,4,14,14,0,0,0-.91,5.1,14.43,14.43,0,0,0,.91,5.19,12,12,0,0,0,2.52,4A11.37,11.37,0,0,0,289,40.82a12.53,12.53,0,0,0,4.91.94,11.61,11.61,0,0,0,5.39-1.18,10.45,10.45,0,0,0,3.7-3.06l7.2,6.6A20.39,20.39,0,0,1,303.2,49.17Z" transform="translate(19.9 20.37)"/><path class="cls-6" d="M358.62,28.84a22.77,22.77,0,0,1-1.76,9.06,20.63,20.63,0,0,1-4.87,7,21.77,21.77,0,0,1-7.42,4.51,26.5,26.5,0,0,1-9.33,1.6,26.25,26.25,0,0,1-9.3-1.6,21.73,21.73,0,0,1-7.39-4.51,20.63,20.63,0,0,1-4.87-7,22.6,22.6,0,0,1-1.76-9.06,22.31,22.31,0,0,1,1.76-9,19.79,19.79,0,0,1,4.87-6.88,21.72,21.72,0,0,1,7.39-4.36,28.94,28.94,0,0,1,18.63,0A21.76,21.76,0,0,1,352,12.91a19.79,19.79,0,0,1,4.87,6.88A22.48,22.48,0,0,1,358.62,28.84Zm-11.08,0a14.09,14.09,0,0,0-.91-5.07,12.14,12.14,0,0,0-2.52-4,11.66,11.66,0,0,0-3.87-2.66,12.56,12.56,0,0,0-5-1,12.34,12.34,0,0,0-5,1,12.09,12.09,0,0,0-3.87,2.66,11.53,11.53,0,0,0-2.52,4,14.52,14.52,0,0,0-.88,5.07,14.67,14.67,0,0,0,.91,5.22,12.31,12.31,0,0,0,2.52,4.1,11.39,11.39,0,0,0,3.84,2.69,13.22,13.22,0,0,0,9.94,0,11.71,11.71,0,0,0,3.87-2.69,12.06,12.06,0,0,0,2.55-4.1A14.67,14.67,0,0,0,347.54,28.84Z" transform="translate(19.9 20.37)"/><path class="cls-6" d="M392.92,50,375.19,23H375l.25,27H365V8h12.28l17.53,27H395l-.25-27H405V50Z" transform="translate(19.9 20.37)"/><path class="cls-7" d="M152,64.27a3.55,3.55,0,0,0-1.3-.94A4,4,0,0,0,149,63a4.42,4.42,0,0,0-1,.12,3.11,3.11,0,0,0-.92.37,2,2,0,0,0-.68.65,1.7,1.7,0,0,0-.26,1,1.6,1.6,0,0,0,.23.89,1.9,1.9,0,0,0,.63.63,4.48,4.48,0,0,0,1,.46q.57.19,1.26.39c.52.16,1.07.34,1.63.54a6.46,6.46,0,0,1,1.54.81A4,4,0,0,1,153.56,70a3.67,3.67,0,0,1,.45,1.89,4.49,4.49,0,0,1-1.77,3.7,5.53,5.53,0,0,1-1.89.91,8.1,8.1,0,0,1-2.28.31,9,9,0,0,1-3.11-.56,5.93,5.93,0,0,1-2.48-1.64l2.07-1.83a4,4,0,0,0,1.6,1.24,4.46,4.46,0,0,0,3,.34,2.92,2.92,0,0,0,1-.4,2.46,2.46,0,0,0,.69-.71,2,2,0,0,0,.26-1.05,1.62,1.62,0,0,0-.3-1,2.61,2.61,0,0,0-.8-.7,5.55,5.55,0,0,0-1.2-.51l-1.45-.46a14.34,14.34,0,0,1-1.47-.52,4.89,4.89,0,0,1-1.33-.81,3.76,3.76,0,0,1-.95-1.23,3.92,3.92,0,0,1-.37-1.81,3.79,3.79,0,0,1,.52-2,4.43,4.43,0,0,1,1.36-1.4,6.36,6.36,0,0,1,1.91-.83,8.84,8.84,0,0,1,2.17-.27,8,8,0,0,1,2.52.42,6,6,0,0,1,2.22,1.24Z" transform="translate(19.9 20.37)"/><path class="cls-7" d="M157,61h3V76h-3Z" transform="translate(19.9 20.37)"/><path class="cls-7" d="M167,63h-5V61h13v2h-5V76h-3Z" transform="translate(19.9 20.37)"/><path class="cls-7" d="M177,61h10v2h-7v5h7v2h-7v4h8v2H177Z" transform="translate(19.9 20.37)"/><path class="cls-7" d="M202.27,64.67a3.62,3.62,0,0,0-1.68-1.21,5.68,5.68,0,0,0-2-.38,5.86,5.86,0,0,0-2.3.43,5.42,5.42,0,0,0-1.79,1.2,5.3,5.3,0,0,0-1.15,1.78,6,6,0,0,0-.4,2.22,6.59,6.59,0,0,0,.39,2.31,5.07,5.07,0,0,0,2.85,3,6.13,6.13,0,0,0,2.28.41,5.25,5.25,0,0,0,2.33-.49,4.58,4.58,0,0,0,1.63-1.29l2.33,1.54a7.44,7.44,0,0,1-2.65,2,8.85,8.85,0,0,1-3.66.71,10,10,0,0,1-3.51-.6,8.28,8.28,0,0,1-2.75-1.67,7.65,7.65,0,0,1-1.8-2.57,8.2,8.2,0,0,1-.64-3.3,8,8,0,0,1,.68-3.34,7.36,7.36,0,0,1,1.86-2.53,8.15,8.15,0,0,1,2.8-1.61,10.52,10.52,0,0,1,5.13-.43,8.69,8.69,0,0,1,1.63.44,7.55,7.55,0,0,1,1.48.73,4.69,4.69,0,0,1,1.17,1Z" transform="translate(19.9 20.37)"/><path class="cls-7" d="M205.47,68.71a8.19,8.19,0,0,1,.66-3.34A7.26,7.26,0,0,1,208,62.84a7.88,7.88,0,0,1,2.76-1.61,10.34,10.34,0,0,1,3.49-.57,10.52,10.52,0,0,1,3.52.57,8.06,8.06,0,0,1,2.78,1.61,7.16,7.16,0,0,1,1.83,2.53,8.19,8.19,0,0,1,.66,3.34,8,8,0,0,1-.66,3.3,7.59,7.59,0,0,1-1.83,2.57,8.52,8.52,0,0,1-2.78,1.67,10,10,0,0,1-3.52.6,9.88,9.88,0,0,1-3.49-.6A8.32,8.32,0,0,1,208,74.58,7.71,7.71,0,0,1,206.13,72,8,8,0,0,1,205.47,68.71Zm3.16,0A6.21,6.21,0,0,0,209,71a5.34,5.34,0,0,0,1.15,1.79A5.41,5.41,0,0,0,212,74a5.92,5.92,0,0,0,2.27.42A6,6,0,0,0,216.5,74a5.24,5.24,0,0,0,2.93-3,6.21,6.21,0,0,0,.4-2.28,6,6,0,0,0-.4-2.22,5.43,5.43,0,0,0-1.14-1.78,5.23,5.23,0,0,0-1.77-1.2,5.89,5.89,0,0,0-2.3-.43,5.81,5.81,0,0,0-2.29.43,5.29,5.29,0,0,0-1.76,1.2A5.43,5.43,0,0,0,209,66.49,6,6,0,0,0,208.63,68.71Z" transform="translate(19.9 20.37)"/><path class="cls-7" d="M226,61h5.86a11,11,0,0,1,2.31.24,6.21,6.21,0,0,1,2,.78,3.94,3.94,0,0,1,1.92,3.57,3.94,3.94,0,0,1-1,2.83,5.32,5.32,0,0,1-2.83,1.48l4.5,7.1h-3.39l-4-7H229v7h-3Zm5.19,7a8.89,8.89,0,0,0,1.15-.08,3.34,3.34,0,0,0,1-.3,2,2,0,0,0,.75-.63,1.77,1.77,0,0,0,.3-1.06,1.6,1.6,0,0,0-.27-1,2.16,2.16,0,0,0-.71-.59,2.85,2.85,0,0,0-1-.3,7.8,7.8,0,0,0-1.06-.08H229v4Z" transform="translate(19.9 20.37)"/><path class="cls-7" d="M240,61h11v2h-8v5h7v2h-7v4h8v2H240Z" transform="translate(19.9 20.37)"/><path class="cls-7" d="M273,70.75a6.15,6.15,0,0,1-.5,2.51,5.62,5.62,0,0,1-1.37,1.9,5.92,5.92,0,0,1-2.05,1.21,8,8,0,0,1-5.16,0,6,6,0,0,1-2.06-1.21,5.36,5.36,0,0,1-1.37-1.9,6.14,6.14,0,0,1-.49-2.51V61h3v9.64a5.15,5.15,0,0,0,.18,1.34,3.18,3.18,0,0,0,.58,1.18,3,3,0,0,0,1.08.85,4.34,4.34,0,0,0,3.32,0,3,3,0,0,0,1.08-.85,3.18,3.18,0,0,0,.58-1.18,5.15,5.15,0,0,0,.18-1.34V61h3Z" transform="translate(19.9 20.37)"/><path class="cls-7" d="M284.81,64.27a3.55,3.55,0,0,0-1.3-.94,4,4,0,0,0-1.69-.38,4.29,4.29,0,0,0-1,.12,3.18,3.18,0,0,0-.93.37,2,2,0,0,0-.67.65,1.7,1.7,0,0,0-.27,1,1.68,1.68,0,0,0,.23.89,2,2,0,0,0,.63.63,4.71,4.71,0,0,0,1,.46c.39.13.81.26,1.27.39s1.06.34,1.62.54a6.27,6.27,0,0,1,1.54.81A4,4,0,0,1,286.36,70a3.67,3.67,0,0,1,.45,1.89,4.66,4.66,0,0,1-.48,2.17A4.45,4.45,0,0,1,285,75.63a5.53,5.53,0,0,1-1.89.91,8.1,8.1,0,0,1-2.28.31,9,9,0,0,1-3.1-.56,6,6,0,0,1-2.49-1.64l2.07-1.83a4.07,4.07,0,0,0,1.6,1.24,4.67,4.67,0,0,0,2,.46,4.75,4.75,0,0,0,1-.12,2.78,2.78,0,0,0,1-.4,2.22,2.22,0,0,0,.69-.71,1.91,1.91,0,0,0,.27-1.05,1.62,1.62,0,0,0-.3-1,2.54,2.54,0,0,0-.81-.7,5.46,5.46,0,0,0-1.19-.51l-1.45-.46a13.7,13.7,0,0,1-1.48-.52,4.69,4.69,0,0,1-1.32-.81,3.92,3.92,0,0,1-1-1.23,4.05,4.05,0,0,1-.36-1.81,3.87,3.87,0,0,1,.51-2,4.54,4.54,0,0,1,1.36-1.4,6.47,6.47,0,0,1,1.91-.83,8.92,8.92,0,0,1,2.18-.27,8.07,8.07,0,0,1,2.52.42,6,6,0,0,1,2.22,1.24Z" transform="translate(19.9 20.37)"/><path class="cls-7" d="M290,61h11v2h-8v5h7v2h-7v4h8v2H290Z" transform="translate(19.9 20.37)"/><path class="cls-7" d="M304,61h5.86a11,11,0,0,1,2.31.24,6.21,6.21,0,0,1,2,.78,3.94,3.94,0,0,1,1.92,3.57,3.94,3.94,0,0,1-1,2.83,5.32,5.32,0,0,1-2.83,1.48l4.5,7.1h-3.39l-4.05-7H307v7h-3Zm5.19,7a8.89,8.89,0,0,0,1.15-.08,3.34,3.34,0,0,0,1-.3,2,2,0,0,0,.75-.63,1.77,1.77,0,0,0,.3-1.06,1.6,1.6,0,0,0-.27-1,2.16,2.16,0,0,0-.71-.59,2.85,2.85,0,0,0-1-.3,7.8,7.8,0,0,0-1.06-.08H307v4Z" transform="translate(19.9 20.37)"/><path class="cls-7" d="M338,76a14.57,14.57,0,0,1-2.91.89,19,19,0,0,1-3.66.31,11.84,11.84,0,0,1-3.86-.6,9.1,9.1,0,0,1-3-1.67,7.66,7.66,0,0,1,.06-11.74,9.14,9.14,0,0,1,3-1.61,11.87,11.87,0,0,1,3.74-.57,12.78,12.78,0,0,1,3.82.54,8.06,8.06,0,0,1,2.8,1.4L335.84,65A5.34,5.34,0,0,0,334,63.87a7.11,7.11,0,0,0-2.6-.46,6.81,6.81,0,0,0-2.49.43A5.65,5.65,0,0,0,327,65a5.25,5.25,0,0,0-1.21,1.79,5.59,5.59,0,0,0-.44,2.21,5.83,5.83,0,0,0,.44,2.28A5.14,5.14,0,0,0,327,73.11a5.56,5.56,0,0,0,1.95,1.19,7.44,7.44,0,0,0,2.59.42,10.08,10.08,0,0,0,3.47-.54V70h-3V68h6Z" transform="translate(19.9 20.37)"/><path class="cls-7" d="M342,61h5.86a11,11,0,0,1,2.31.24,6.21,6.21,0,0,1,2,.78,3.94,3.94,0,0,1,1.92,3.57,3.94,3.94,0,0,1-1,2.83,5.32,5.32,0,0,1-2.83,1.48l4.5,7.1h-3.39l-4.05-7H345v7h-3Zm5.19,7a8.89,8.89,0,0,0,1.15-.08,3.34,3.34,0,0,0,1-.3,2,2,0,0,0,.75-.63,1.77,1.77,0,0,0,.3-1.06,1.6,1.6,0,0,0-.27-1,2.16,2.16,0,0,0-.71-.59,2.85,2.85,0,0,0-1-.3,7.8,7.8,0,0,0-1.06-.08H345v4Z" transform="translate(19.9 20.37)"/><path class="cls-7" d="M355.47,68.71a8.19,8.19,0,0,1,.66-3.34,7.23,7.23,0,0,1,1.81-2.53,8,8,0,0,1,2.77-1.61,10.24,10.24,0,0,1,3.48-.57,10.44,10.44,0,0,1,3.52.57,8,8,0,0,1,2.79,1.61,7.28,7.28,0,0,1,1.83,2.53,8.19,8.19,0,0,1,.66,3.34,8,8,0,0,1-.66,3.3,7.73,7.73,0,0,1-1.83,2.57,8.46,8.46,0,0,1-2.79,1.67,10,10,0,0,1-3.52.6,9.78,9.78,0,0,1-3.48-.6,8.47,8.47,0,0,1-2.77-1.67A7.68,7.68,0,0,1,356.13,72,8,8,0,0,1,355.47,68.71Zm3.15,0A6.21,6.21,0,0,0,359,71a5.19,5.19,0,0,0,1.15,1.79A5.31,5.31,0,0,0,362,74a5.92,5.92,0,0,0,2.27.42A6.08,6.08,0,0,0,366.5,74a5.24,5.24,0,0,0,2.93-3,6.21,6.21,0,0,0,.4-2.28,6,6,0,0,0-.4-2.22,5.43,5.43,0,0,0-1.14-1.78,5.23,5.23,0,0,0-1.77-1.2,5.89,5.89,0,0,0-2.3-.43,5.77,5.77,0,0,0-2.29.43,5.19,5.19,0,0,0-1.76,1.2A5.12,5.12,0,0,0,359,66.49,6,6,0,0,0,358.62,68.71Z" transform="translate(19.9 20.37)"/><path class="cls-7" d="M389,70.75a6.15,6.15,0,0,1-.5,2.51,5.62,5.62,0,0,1-1.37,1.9,5.92,5.92,0,0,1-2.05,1.21,8,8,0,0,1-5.16,0,6,6,0,0,1-2.06-1.21,5.36,5.36,0,0,1-1.37-1.9,6.14,6.14,0,0,1-.49-2.51V61h3v9.64a5.15,5.15,0,0,0,.18,1.34,3.18,3.18,0,0,0,.58,1.18,3,3,0,0,0,1.08.85,4.34,4.34,0,0,0,3.32,0,3,3,0,0,0,1.08-.85,3.18,3.18,0,0,0,.58-1.18,5.15,5.15,0,0,0,.18-1.34V61h3Z" transform="translate(19.9 20.37)"/><path class="cls-7" d="M392,61h5.41a12.12,12.12,0,0,1,2.52.24,5.51,5.51,0,0,1,1.93.78,3.69,3.69,0,0,1,1.24,1.39,4.39,4.39,0,0,1,.43,2,4.16,4.16,0,0,1-.5,2.14,3.91,3.91,0,0,1-1.37,1.4,6,6,0,0,1-2,.77,11.92,11.92,0,0,1-2.43.24H395v6h-3Zm4.83,7a7.9,7.9,0,0,0,1.23-.09,3.68,3.68,0,0,0,1.05-.31,1.92,1.92,0,0,0,.73-.62,1.81,1.81,0,0,0,.27-1,1.66,1.66,0,0,0-.27-1,1.87,1.87,0,0,0-.72-.61,3.47,3.47,0,0,0-1-.28,9.23,9.23,0,0,0-1.18-.07H395v4Z" transform="translate(19.9 20.37)"/><path class="cls-7" d="M164.57,92.27a6,6,0,0,0-2.81-2,9.62,9.62,0,0,0-3.38-.64,9.75,9.75,0,0,0-3.85.73,9,9,0,0,0-3,2,8.88,8.88,0,0,0-1.92,3A10,10,0,0,0,149,99a10.82,10.82,0,0,0,.65,3.86,8.52,8.52,0,0,0,1.87,3,8.33,8.33,0,0,0,2.9,2,10,10,0,0,0,3.81.69,8.76,8.76,0,0,0,3.89-.82,7.6,7.6,0,0,0,2.74-2.16l3.88,2.58a12.37,12.37,0,0,1-4.42,3.33,14.75,14.75,0,0,1-6.12,1.18,16.55,16.55,0,0,1-5.87-1,13.44,13.44,0,0,1-4.6-2.8,12.66,12.66,0,0,1-3-4.29A13.73,13.73,0,0,1,143.59,99a13.25,13.25,0,0,1,1.14-5.58,12.5,12.5,0,0,1,3.12-4.24,13.86,13.86,0,0,1,4.68-2.69,17.51,17.51,0,0,1,5.85-1,16.45,16.45,0,0,1,2.73.24,14.43,14.43,0,0,1,2.73.73,13.16,13.16,0,0,1,2.47,1.21,7.86,7.86,0,0,1,2,1.75Z" transform="translate(19.9 20.37)"/><path class="cls-7" d="M169.92,99a13.72,13.72,0,0,1,1.1-5.58,12.29,12.29,0,0,1,3-4.24,13.58,13.58,0,0,1,4.62-2.69,17.43,17.43,0,0,1,5.83-1,17.66,17.66,0,0,1,5.89,1,13.67,13.67,0,0,1,4.66,2.69,12.09,12.09,0,0,1,3.06,4.24,13.72,13.72,0,0,1,1.1,5.58,13.57,13.57,0,0,1-1.1,5.52,12.66,12.66,0,0,1-3.06,4.29,13.9,13.9,0,0,1-4.66,2.8,16.7,16.7,0,0,1-5.89,1,16.49,16.49,0,0,1-5.83-1,13.82,13.82,0,0,1-4.62-2.8,12.88,12.88,0,0,1-3-4.29A13.57,13.57,0,0,1,169.92,99Zm5.28,0a10.41,10.41,0,0,0,.67,3.81,8.76,8.76,0,0,0,4.89,5,9.88,9.88,0,0,0,3.79.71,10,10,0,0,0,3.81-.71,8.78,8.78,0,0,0,3-2,8.87,8.87,0,0,0,1.92-3A10.41,10.41,0,0,0,194,99a10,10,0,0,0-.68-3.71,9,9,0,0,0-1.9-3,8.79,8.79,0,0,0-3-2,9.75,9.75,0,0,0-3.85-.73,9.62,9.62,0,0,0-3.83.73,8.76,8.76,0,0,0-2.94,2,9,9,0,0,0-1.91,3A10,10,0,0,0,175.2,99Z" transform="translate(19.9 20.37)"/><path class="cls-7" d="M204,86h5.87l13,19H223V86h5v26h-6.1L209.08,92H209v20h-5Z" transform="translate(19.9 20.37)"/><path class="cls-7" d="M234,86h18v4H239v7h12v4H239v11h-5Z" transform="translate(19.9 20.37)"/><path class="cls-7" d="M256,86h18v4H261v7h13v4H261v7h14v4H256Z" transform="translate(19.9 20.37)"/><path class="cls-7" d="M279,86h9.76a18.69,18.69,0,0,1,3.85.39,10.14,10.14,0,0,1,3.32,1.26A6.87,6.87,0,0,1,298.25,90a6.56,6.56,0,0,1,.87,3.48,6.33,6.33,0,0,1-1.72,4.61,9,9,0,0,1-4.71,2.41l7.5,11.53h-6.26l-6.36-11H284v11h-5Zm8.83,11a15.09,15.09,0,0,0,2-.14,6,6,0,0,0,1.81-.53A3.54,3.54,0,0,0,293,95.22a3,3,0,0,0,.52-1.84,2.73,2.73,0,0,0-.48-1.67,3.64,3.64,0,0,0-1.23-1,5.21,5.21,0,0,0-1.7-.53,13,13,0,0,0-1.84-.14H284v7Z" transform="translate(19.9 20.37)"/><path class="cls-7" d="M304,86h18v4H308v7h13v4H308v7h14v4H304Z" transform="translate(19.9 20.37)"/><path class="cls-7" d="M327,86h5.87l13.05,19H346V86h5v26h-6.1L332.08,92H332v20h-5Z" transform="translate(19.9 20.37)"/><path class="cls-7" d="M376.87,92.27a6.13,6.13,0,0,0-2.81-2,9.63,9.63,0,0,0-3.39-.64,9.78,9.78,0,0,0-3.85.73,8.93,8.93,0,0,0-3,2,8.73,8.73,0,0,0-1.92,3,10,10,0,0,0-.68,3.71,10.82,10.82,0,0,0,.66,3.86,8.5,8.5,0,0,0,1.86,3,8.37,8.37,0,0,0,2.91,2,10,10,0,0,0,3.81.69,8.79,8.79,0,0,0,3.89-.82,7.48,7.48,0,0,0,2.73-2.16l3.89,2.58a12.4,12.4,0,0,1-4.43,3.33,14.69,14.69,0,0,1-6.12,1.18,16.55,16.55,0,0,1-5.87-1,13.53,13.53,0,0,1-4.6-2.8,12.78,12.78,0,0,1-3-4.29A13.73,13.73,0,0,1,355.89,99,13.25,13.25,0,0,1,357,93.45a12.34,12.34,0,0,1,3.11-4.24,14.05,14.05,0,0,1,4.68-2.69,17.59,17.59,0,0,1,5.85-1,16.56,16.56,0,0,1,2.74.24,14.43,14.43,0,0,1,2.73.73,13.38,13.38,0,0,1,2.46,1.21,7.91,7.91,0,0,1,2,1.75Z" transform="translate(19.9 20.37)"/><path class="cls-7" d="M384,86h18v4H389v7h13v4H389v7h14v4H384Z" transform="translate(19.9 20.37)"/></g></g></g></svg>