<svg xmlns="http://www.w3.org/2000/svg" xmlns:xlink="http://www.w3.org/1999/xlink" viewBox="0 0 428.79 158.75"><defs><style>.cls-1{fill:none;}.cls-2{clip-path:url(#clip-path);}.cls-3{fill:#bb2c26;}.cls-4{fill:#ee3524;}.cls-5{fill:#fff;}.cls-6{font-size:59px;font-family:AvenirNext-Bold, Avenir Next;font-weight:700;}.cls-10,.cls-6,.cls-8{fill:#232323;}.cls-7{letter-spacing:-0.01em;}.cls-8{font-size:21.76px;}.cls-10,.cls-8{font-family:AvenirNext-DemiBold, Avenir Next;font-weight:300;}.cls-9{letter-spacing:-0.01em;}.cls-10{font-size:36.39px;}.cls-11{letter-spacing:-0.01em;}</style><clipPath id="clip-path" transform="translate(19.88 19.89)"><rect class="cls-1" y="0.17" width="118" height="118" rx="10.42"/></clipPath></defs><g id="Layer_2" data-name="Layer 2"><g id="Logos"><g id="vertical-1"><g class="cls-2"><rect class="cls-3" x="19.88" y="20.06" width="118" height="118" rx="10.42"/><path class="cls-4" d="M58.92-19.89c-43.52,0-78.8,35.54-78.8,79.37s35.28,79.37,78.8,79.37,78.79-35.54,78.79-79.37S102.43-19.89,58.92-19.89Zm.76,137c-31.82,0-57.61-26-57.61-58S27.86,1,59.68,1,117.3,27,117.3,59,91.5,117.08,59.68,117.08Z" transform="translate(19.88 19.89)"/><path class="cls-4" d="M9,71.86s9,35,43.91,38.72,52.46-26.65,52.46-26.65L96,78.12S81.41,102.67,55.4,101.84,16.27,85.4,9,71.86Z" transform="translate(19.88 19.89)"/><path class="cls-4" d="M27.38,91.38c7.89,5.61,17.19,8.56,28.06,8.91,24.91.8,39.27-22.85,39.41-23.08l.69-1.16,1.14.71,8.77,5.46c8-13.24,6.12-28,6.12-28l-16.21.18S96.6,78.29,67.89,91.82c-12,5.63-32,4.71-44.13-4.79A21,21,0,0,0,27.38,91.38Z" transform="translate(19.88 19.89)"/><path class="cls-4" d="M93,53.37l-.06-2.2,1.36,1h17.07c-.76-13.59-10.77-25.23-10.77-25.23L81.41,38.81s12.2,9.11,1.16,30.64C78.73,76.94,70.47,85,62.88,88.59c-9.27,4.35-16.4,4.56-16.4,4.56.94.38,9.91,2.17,22.49-3.42C93.77,78.71,93,54.31,93,53.37Z" transform="translate(19.88 19.89)"/><rect class="cls-5" x="42.88" y="51.06" width="71" height="53" rx="3.6"/><polygon class="cls-5" points="113.88 88.91 113.88 117.7 88.18 93.07 113.88 88.91"/></g><text class="cls-6" transform="translate(160.89 70.28) scale(1.03 1)">SUG<tspan class="cls-7" x="123.78" y="0">C</tspan><tspan x="164.14" y="0">ON</tspan></text><text class="cls-8" transform="translate(161.8 96.83) scale(1.06 1)">SITE<tspan class="cls-9" x="44.25" y="0">C</tspan><tspan x="59.13" y="0">ORE USER GROUP</tspan></text><text class="cls-10" transform="translate(161.8 132.36) scale(1.06 1)"><tspan class="cls-11">C</tspan><tspan x="24.89" y="0">ONFERENCE</tspan></text></g></g></g></svg>