<svg xmlns="http://www.w3.org/2000/svg" xmlns:xlink="http://www.w3.org/1999/xlink" viewBox="0 0 463.88 158.75"><defs><style>.cls-1{fill:none;}.cls-2{clip-path:url(#clip-path);}.cls-3{fill:#bb2c26;}.cls-4{fill:#ee3524;}.cls-5{fill:#fff;}.cls-6{font-size:59px;font-family:AvenirNext-Bold, Avenir Next;font-weight:700;}.cls-6,.cls-8{fill:#232323;}.cls-7{letter-spacing:-0.01em;}.cls-8{font-size:48.27px;font-family:AvenirNext-DemiBold, Avenir Next;font-weight:300;}.cls-9{font-size:37.47px;}</style><clipPath id="clip-path" transform="translate(19.88 20.06)"><rect class="cls-1" width="118" height="118" rx="10.42"/></clipPath></defs><g id="Layer_2" data-name="Layer 2"><g id="Logos"><g id="vertical-1"><g class="cls-2"><rect class="cls-3" x="19.88" y="20.06" width="118" height="118" rx="10.42"/><path class="cls-4" d="M58.92-20.06c-43.52,0-78.8,35.54-78.8,79.37s35.28,79.37,78.8,79.37,78.79-35.54,78.79-79.37S102.43-20.06,58.92-20.06Zm.76,137c-31.82,0-57.61-26-57.61-58S27.86.82,59.68.82s57.62,26,57.62,58S91.5,116.91,59.68,116.91Z" transform="translate(19.88 20.06)"/><path class="cls-4" d="M9,71.69s9,35,43.91,38.72,52.46-26.65,52.46-26.65L96,78S81.41,102.5,55.4,101.67,16.27,85.23,9,71.69Z" transform="translate(19.88 20.06)"/><path class="cls-4" d="M27.38,91.21c7.89,5.61,17.19,8.56,28.06,8.91,24.91.8,39.27-22.85,39.41-23.08l.69-1.16,1.14.71,8.77,5.46c8-13.24,6.12-28,6.12-28l-16.21.18S96.6,78.12,67.89,91.65c-12,5.63-32,4.71-44.13-4.79A21,21,0,0,0,27.38,91.21Z" transform="translate(19.88 20.06)"/><path class="cls-4" d="M93,53.2,92.9,51l1.36,1h17.07c-.76-13.59-10.77-25.23-10.77-25.23L81.41,38.64s12.2,9.11,1.16,30.64c-3.84,7.49-12.1,15.59-19.69,19.14C53.61,92.77,46.48,93,46.48,93c.94.38,9.91,2.17,22.49-3.42C93.77,78.54,93,54.14,93,53.2Z" transform="translate(19.88 20.06)"/><rect class="cls-5" x="42.88" y="51.06" width="71" height="53" rx="3.6"/><polygon class="cls-5" points="113.88 88.91 113.88 117.7 88.18 93.07 113.88 88.91"/></g><text class="cls-6" transform="translate(158.33 81.92) scale(1.03 1)">SUG<tspan class="cls-7" x="123.78" y="0">C</tspan><tspan x="164.14" y="0">ON</tspan></text><text class="cls-8" transform="translate(159.24 122) scale(1.06 1)"><tspan xml:space="preserve">E U R O P E  </tspan><tspan class="cls-9" x="278.6" y="0"> </tspan></text></g></g></g></svg>