<svg xmlns="http://www.w3.org/2000/svg" xmlns:xlink="http://www.w3.org/1999/xlink" viewBox="0 0 424.9 158.75"><defs><style>.cls-1{fill:none;}.cls-2{clip-path:url(#clip-path);}.cls-3{fill:#bb2c26;}.cls-4{fill:#ee3524;}.cls-5{fill:#fff;}.cls-6{fill:#232323;}</style><clipPath id="clip-path" transform="translate(19.9 20.37)"><rect class="cls-1" width="118" height="118" rx="10.42"/></clipPath></defs><g id="Layer_2" data-name="Layer 2"><g id="Logos"><g id="vertical-1"><g class="cls-2"><rect class="cls-3" x="19.9" y="20.37" width="118" height="118" rx="10.42"/><path class="cls-4" d="M58.9-20.37C15.38-20.37-19.9,15.17-19.9,59s35.28,79.37,78.8,79.37S137.7,102.83,137.7,59,102.41-20.37,58.9-20.37Zm.76,137c-31.82,0-57.61-26-57.61-58S27.84.51,59.66.51s57.62,26,57.62,58S91.48,116.6,59.66,116.6Z" transform="translate(19.9 20.37)"/><path class="cls-4" d="M9,71.38s9,35,43.92,38.72,52.45-26.65,52.45-26.65L96,77.64S81.4,102.19,55.38,101.36,16.25,84.92,9,71.38Z" transform="translate(19.9 20.37)"/><path class="cls-4" d="M27.37,91.21c7.88,5.61,17.18,8.56,28.05,8.91,24.92.8,39.27-22.85,39.42-23.08l.68-1.16,1.14.71,8.77,5.46c8-13.24,6.12-28,6.12-28l-16.21.18s1.25,23.94-27.47,37.47c-12,5.63-32.05,4.71-44.13-4.79A20.85,20.85,0,0,0,27.37,91.21Z" transform="translate(19.9 20.37)"/><path class="cls-4" d="M92.94,53.2,92.88,51l1.36,1h17.07c-.76-13.59-10.76-25.23-10.76-25.23L81.4,38.64s12.19,9.11,1.15,30.64c-3.84,7.49-12.1,15.59-19.69,19.14C53.59,92.77,46.46,93,46.46,93c.94.38,9.91,2.17,22.49-3.42C93.75,78.54,93,54.14,92.94,53.2Z" transform="translate(19.9 20.37)"/><rect class="cls-5" x="42.9" y="51.37" width="71" height="53" rx="3.6"/><polygon class="cls-5" points="113.9 88.91 113.9 117.7 88.2 93.07 113.9 88.91"/></g><path class="cls-6" d="M168.07,24a9.34,9.34,0,0,0-3.49-2.63,10.14,10.14,0,0,0-4.15-1,12.35,12.35,0,0,0-2.08.18,5.36,5.36,0,0,0-1.91.68A4.65,4.65,0,0,0,155,22.54a3.44,3.44,0,0,0-.57,2,3.23,3.23,0,0,0,.45,1.77,4.14,4.14,0,0,0,1.34,1.24,11.69,11.69,0,0,0,2.09,1c.8.3,1.71.6,2.72.92,1.45.47,3,1,4.54,1.56a17.12,17.12,0,0,1,4.3,2.27,12,12,0,0,1,3.21,3.51A9.9,9.9,0,0,1,174.37,42,13.35,13.35,0,0,1,173,48.27a12.52,12.52,0,0,1-3.66,4.33,15.73,15.73,0,0,1-5.27,2.54A22.76,22.76,0,0,1,158,56a25.63,25.63,0,0,1-8.9-1.57A18.86,18.86,0,0,1,141.9,50l6.78-6.73a12.61,12.61,0,0,0,4.15,3.16A11.48,11.48,0,0,0,158,47.65a10.32,10.32,0,0,0,2.24-.24,5.54,5.54,0,0,0,1.91-.76,3.86,3.86,0,0,0,1.3-1.42,4.29,4.29,0,0,0,.49-2.12,3.33,3.33,0,0,0-.61-2,5.84,5.84,0,0,0-1.72-1.5,13.57,13.57,0,0,0-2.79-1.24c-1.11-.38-2.37-.78-3.79-1.21a38.27,38.27,0,0,1-4-1.54,13.28,13.28,0,0,1-3.52-2.27A10.35,10.35,0,0,1,145,30a11.09,11.09,0,0,1-.94-4.81,11.57,11.57,0,0,1,1.45-6,12.4,12.4,0,0,1,3.82-4.07,16.65,16.65,0,0,1,5.33-2.33,24.89,24.89,0,0,1,6-.74,23,23,0,0,1,7.42,1.3,19.34,19.34,0,0,1,6.63,3.83Z" transform="translate(19.9 20.37)"/><path class="cls-6" d="M216.69,45.89a14.75,14.75,0,0,1-3.75,5.31,17.31,17.31,0,0,1-5.88,3.45,24.31,24.31,0,0,1-15.33,0,16.52,16.52,0,0,1-5.79-3.45,14.77,14.77,0,0,1-3.66-5.31A17.85,17.85,0,0,1,181,39V13h10V38.19a11.5,11.5,0,0,0,.45,3.25,8.22,8.22,0,0,0,1.38,2.74,6.52,6.52,0,0,0,2.47,1.92,10,10,0,0,0,7.4,0,6.78,6.78,0,0,0,2.5-1.92,7.54,7.54,0,0,0,1.38-2.74,12.26,12.26,0,0,0,.42-3.25V13h11V39A17.49,17.49,0,0,1,216.69,45.89Z" transform="translate(19.9 20.37)"/><path class="cls-6" d="M256.26,54.72a43.59,43.59,0,0,1-9.65,1,30.08,30.08,0,0,1-10-1.59,23.15,23.15,0,0,1-7.83-4.48,20.42,20.42,0,0,1-5.13-6.94,21.38,21.38,0,0,1-1.85-9,21.45,21.45,0,0,1,1.88-9.09,20.26,20.26,0,0,1,5.19-6.93,23.51,23.51,0,0,1,7.77-4.4,29.48,29.48,0,0,1,9.62-1.53,31.81,31.81,0,0,1,9.94,1.5,20.89,20.89,0,0,1,7.45,4.05l-6.88,7.25a11.93,11.93,0,0,0-4.2-2.8,15.22,15.22,0,0,0-5.93-1.09,14,14,0,0,0-5.28,1,12.78,12.78,0,0,0-4.21,2.72,12.16,12.16,0,0,0-2.77,4.13,13.48,13.48,0,0,0-1,5.22,15.14,15.14,0,0,0,.9,5.31A11.21,11.21,0,0,0,237,43.19a12.14,12.14,0,0,0,4.33,2.71,16.61,16.61,0,0,0,5.89,1,23.31,23.31,0,0,0,3.63-.26,14.22,14.22,0,0,0,3.19-.86V38h-8V30h18V52.12A36.16,36.16,0,0,1,256.26,54.72Z" transform="translate(19.9 20.37)"/><path class="cls-6" d="M303.2,54.17A23.5,23.5,0,0,1,293.57,56a25.55,25.55,0,0,1-9.18-1.6,21.53,21.53,0,0,1-7.3-4.51,20.91,20.91,0,0,1-4.84-7,22.26,22.26,0,0,1-1.76-9,22.28,22.28,0,0,1,1.79-9.09,20.23,20.23,0,0,1,4.93-6.93,21.85,21.85,0,0,1,7.39-4.39A26.55,26.55,0,0,1,293.75,12a26.26,26.26,0,0,1,8.93,1.57,17.1,17.1,0,0,1,7.12,4.57l-7,6.84A8.67,8.67,0,0,0,299,22.1a13,13,0,0,0-4.85-.94,12.56,12.56,0,0,0-5,1,11.78,11.78,0,0,0-3.9,2.69,12.19,12.19,0,0,0-2.55,4,14,14,0,0,0-.91,5.1,14.43,14.43,0,0,0,.91,5.19,12,12,0,0,0,2.52,4A11.37,11.37,0,0,0,289,45.82a12.53,12.53,0,0,0,4.91.94,11.61,11.61,0,0,0,5.39-1.18,10.45,10.45,0,0,0,3.7-3.06l7.2,6.6A20.39,20.39,0,0,1,303.2,54.17Z" transform="translate(19.9 20.37)"/><path class="cls-6" d="M358.62,33.84a22.77,22.77,0,0,1-1.76,9.06,20.63,20.63,0,0,1-4.87,7,21.77,21.77,0,0,1-7.42,4.51,27.92,27.92,0,0,1-18.63,0,21.73,21.73,0,0,1-7.39-4.51,20.63,20.63,0,0,1-4.87-7,22.6,22.6,0,0,1-1.76-9.06,22.31,22.31,0,0,1,1.76-9.05,19.79,19.79,0,0,1,4.87-6.88,21.72,21.72,0,0,1,7.39-4.36,28.94,28.94,0,0,1,18.63,0A21.76,21.76,0,0,1,352,17.91a19.79,19.79,0,0,1,4.87,6.88A22.48,22.48,0,0,1,358.62,33.84Zm-11.08,0a14.09,14.09,0,0,0-.91-5.07,12.14,12.14,0,0,0-2.52-4,11.66,11.66,0,0,0-3.87-2.66,12.56,12.56,0,0,0-5-1,12.34,12.34,0,0,0-5,1,12.09,12.09,0,0,0-3.87,2.66,11.53,11.53,0,0,0-2.52,4,14.52,14.52,0,0,0-.88,5.07,14.67,14.67,0,0,0,.91,5.22,12.31,12.31,0,0,0,2.52,4.1,11.39,11.39,0,0,0,3.84,2.69,13.22,13.22,0,0,0,9.94,0,11.71,11.71,0,0,0,3.87-2.69,12.06,12.06,0,0,0,2.55-4.1A14.67,14.67,0,0,0,347.54,33.84Z" transform="translate(19.9 20.37)"/><path class="cls-6" d="M392.92,55,375.19,28H375l.25,27H365V13h12.28l17.53,27H395l-.25-27H405V55Z" transform="translate(19.9 20.37)"/><path class="cls-6" d="M146,71h23v5H152v8h16v6H152v9h18v5H146Z" transform="translate(19.9 20.37)"/><path class="cls-6" d="M217,92.09a13.24,13.24,0,0,1-1.08,5.44,12.08,12.08,0,0,1-2.95,4.12,13,13,0,0,1-4.42,2.61,17.2,17.2,0,0,1-11.1,0,13.34,13.34,0,0,1-4.45-2.61,11.67,11.67,0,0,1-2.94-4.12A13.4,13.4,0,0,1,189,92.09V71h6V91.86a10.6,10.6,0,0,0,.4,2.89,6.67,6.67,0,0,0,3.8,4.4,10.52,10.52,0,0,0,7.6,0,6.84,6.84,0,0,0,2.46-1.83,7,7,0,0,0,1.34-2.57,10.6,10.6,0,0,0,.4-2.89V71h6Z" transform="translate(19.9 20.37)"/><path class="cls-6" d="M237,71h11.71a21.3,21.3,0,0,1,4.62.49,12,12,0,0,1,4,1.61A8.42,8.42,0,0,1,260.1,76a8.85,8.85,0,0,1,1,4.43,8.32,8.32,0,0,1-2.07,5.85,10.48,10.48,0,0,1-5.64,3.06l9,14.63h-6.79l-8.1-14H243v14h-6Zm10.93,14a18.65,18.65,0,0,0,2.58-.18,7.76,7.76,0,0,0,2.32-.68,4.5,4.5,0,0,0,1.7-1.42,3.94,3.94,0,0,0,.67-2.38,3.56,3.56,0,0,0-.62-2.15A4.64,4.64,0,0,0,253,76.86a6.88,6.88,0,0,0-2.18-.68,16.16,16.16,0,0,0-2.37-.18H243v9Z" transform="translate(19.9 20.37)"/><path class="cls-6" d="M278.71,87.36a17.87,17.87,0,0,1,1.42-7.23,15.8,15.8,0,0,1,3.94-5.48,17.61,17.61,0,0,1,6-3.49,22.69,22.69,0,0,1,7.55-1.22,23,23,0,0,1,7.62,1.22,18,18,0,0,1,6,3.49,15.72,15.72,0,0,1,4,5.48,17.87,17.87,0,0,1,1.42,7.23,17.62,17.62,0,0,1-1.42,7.13,16.61,16.61,0,0,1-4,5.56,18.27,18.27,0,0,1-6,3.62,21.77,21.77,0,0,1-7.62,1.3,21.49,21.49,0,0,1-7.55-1.3,17.89,17.89,0,0,1-6-3.62,16.7,16.7,0,0,1-3.94-5.56A17.62,17.62,0,0,1,278.71,87.36Zm6.83,0a13.45,13.45,0,0,0,.87,4.92,11.34,11.34,0,0,0,2.49,3.88,11.48,11.48,0,0,0,3.83,2.57,12.78,12.78,0,0,0,4.91.92,12.92,12.92,0,0,0,4.93-.92,11.28,11.28,0,0,0,6.35-6.45,13.45,13.45,0,0,0,.87-4.92,13,13,0,0,0-.87-4.8,11.31,11.31,0,0,0-6.3-6.45,12.67,12.67,0,0,0-5-.94,12.53,12.53,0,0,0-5,.94,11.38,11.38,0,0,0-6.27,6.45A13,13,0,0,0,285.54,87.36Z" transform="translate(19.9 20.37)"/><path class="cls-6" d="M335,71h11.35a27.28,27.28,0,0,1,5.61.53,11.82,11.82,0,0,1,4.28,1.74A8.25,8.25,0,0,1,359,76.35a9.84,9.84,0,0,1,1,4.53,9.3,9.3,0,0,1-1.13,4.77,8.68,8.68,0,0,1-3,3.11,13.55,13.55,0,0,1-4.46,1.71A26.73,26.73,0,0,1,346,91H341v13h-6Zm10.59,15a20.16,20.16,0,0,0,3.07-.22,9,9,0,0,0,2.61-.79,4.68,4.68,0,0,0,1.82-1.55,4.45,4.45,0,0,0,.68-2.56,4.24,4.24,0,0,0-.68-2.49,4.57,4.57,0,0,0-1.8-1.5,8.17,8.17,0,0,0-2.55-.72,25.84,25.84,0,0,0-2.95-.17H341V86Z" transform="translate(19.9 20.37)"/><path class="cls-6" d="M378,71h23v5H384v8h16v6H384v9h18v5H378Z" transform="translate(19.9 20.37)"/></g></g></g></svg>