<svg id="Layer_1" data-name="Layer 1" xmlns="http://www.w3.org/2000/svg" viewBox="0 0 667.95001 143.7"><defs><style>.cls-1{fill:#fe2911;}</style></defs><title>Sitecore_logo_RGB</title><path d="M645.4,98.1V85.8H617.8V73.5h24.7V62H617.8V50.8h26.1V38.7H604V98.1ZM570.6,60.6a6.65338,6.65338,0,0,1-2.5,2.2,13.30745,13.30745,0,0,1-3.4,1,21.86434,21.86434,0,0,1-3.6.3h-6.8V50.3H562c1.1,0,2.2.1,3.3.2a11.24368,11.24368,0,0,1,3.1,1,7.39506,7.39506,0,0,1,2.3,2,6.651,6.651,0,0,1,.9,3.4,6.86343,6.86343,0,0,1-1,3.7m18.3,37.5L573.4,72.7a17.8693,17.8693,0,0,0,9.1-5.9,16.19162,16.19162,0,0,0,3.3-10.2,17.66784,17.66784,0,0,0-1.9-8.5,15.20068,15.20068,0,0,0-5.2-5.5,21.27489,21.27489,0,0,0-7.3-3,38.37149,38.37149,0,0,0-8.3-.9H540.5V98.1h14V74.5h4.9l12.9,23.6ZM508,75.6a17.99467,17.99467,0,0,1-3.5,5.8,16.006,16.006,0,0,1-5.4,3.8,17.41774,17.41774,0,0,1-13.8,0,16.64141,16.64141,0,0,1-5.3-3.8,19.12875,19.12875,0,0,1-3.5-5.8,21.53542,21.53542,0,0,1,0-14.6,14.6918,14.6918,0,0,1,3.5-5.7,16.63494,16.63494,0,0,1,12.2-5.2,16.39363,16.39363,0,0,1,6.9,1.4,17.05626,17.05626,0,0,1,5.4,3.8A18.65769,18.65769,0,0,1,508,61a19.91819,19.91819,0,0,1,1.3,7.2,20.98963,20.98963,0,0,1-1.3,7.4m14.2-20.3a27.49706,27.49706,0,0,0-6.8-9.8,31.84948,31.84948,0,0,0-10.3-6.2,39.34239,39.34239,0,0,0-25.8,0,30.38577,30.38577,0,0,0-10.2,6.2,29.25733,29.25733,0,0,0-6.8,9.8,31.79661,31.79661,0,0,0-2.4,12.9,34.64691,34.64691,0,0,0,2.4,12.8,27.379,27.379,0,0,0,6.8,10,29.35427,29.35427,0,0,0,10.2,6.4,38.105,38.105,0,0,0,25.8,0,30.72087,30.72087,0,0,0,10.3-6.4,30.07786,30.07786,0,0,0,6.8-10,31.79661,31.79661,0,0,0,2.4-12.9,32.73183,32.73183,0,0,0-2.4-12.8M451.3,89.8l-10-9.4a15.502,15.502,0,0,1-5.1,4.4,16.17307,16.17307,0,0,1-7.5,1.7,17.86563,17.86563,0,0,1-6.8-1.3,16.35154,16.35154,0,0,1-5.3-3.7,18.65764,18.65764,0,0,1-3.5-5.7,20.99031,20.99031,0,0,1-1.3-7.4,19.54223,19.54223,0,0,1,1.3-7.2,19.12954,19.12954,0,0,1,3.5-5.8,17.05606,17.05606,0,0,1,5.4-3.8,18.09788,18.09788,0,0,1,6.9-1.4,19.00967,19.00967,0,0,1,6.7,1.3,12.14325,12.14325,0,0,1,5.3,4.2l9.7-9.7a23.47006,23.47006,0,0,0-9.9-6.5,37.007,37.007,0,0,0-25,0,28.69531,28.69531,0,0,0-10.3,6.2,28.27528,28.27528,0,0,0-6.8,9.9,33.66784,33.66784,0,0,0-2.5,12.9,32.24186,32.24186,0,0,0,2.4,12.7,29.34222,29.34222,0,0,0,16.9,16.4,37.01585,37.01585,0,0,0,12.7,2.3,31.89564,31.89564,0,0,0,13.3-2.6,30.89635,30.89635,0,0,0,9.9-7.5m-68.4,8.3V85.8H355.3V73.5h24.6V62H355.3V50.8h26.1V38.7H341.5V98.1ZM325.7,50.9V38.7H277.8V50.9h16.8V98h14.3V50.9ZM262.1,38.7H247.7V98.1h14.4Zm-31.9,5.8a25.98536,25.98536,0,0,0-9.2-5.4,30.18511,30.18511,0,0,0-10.3-1.8,33.08655,33.08655,0,0,0-8.3,1,23.61589,23.61589,0,0,0-7.4,3.4,17.31519,17.31519,0,0,0-5.3,5.8,16.67009,16.67009,0,0,0-2,8.5,15.09754,15.09754,0,0,0,4.7,11.6,18.031,18.031,0,0,0,4.9,3.2,54.21811,54.21811,0,0,0,5.6,2.2c2,.6,3.7,1.2,5.2,1.7a16.98683,16.98683,0,0,1,3.9,1.8,9.54957,9.54957,0,0,1,2.4,2.1,4.01935,4.01935,0,0,1,.8,2.8,6.30232,6.30232,0,0,1-.7,3,4.93857,4.93857,0,0,1-1.8,2,8.48543,8.48543,0,0,1-2.6,1.1,16.27911,16.27911,0,0,1-3.1.3,14.6898,14.6898,0,0,1-7.1-1.8,16.75744,16.75744,0,0,1-5.7-4.5l-9.4,9.6a26.57586,26.57586,0,0,0,9.9,6.3A34.40943,34.40943,0,0,0,207,99.7a30.10419,30.10419,0,0,0,8.5-1.2,22.62426,22.62426,0,0,0,7.3-3.6,18.76328,18.76328,0,0,0,5-6.2,19.41477,19.41477,0,0,0,1.9-8.8,13.561,13.561,0,0,0-1.8-7.4,17.43669,17.43669,0,0,0-4.4-5,22.52389,22.52389,0,0,0-5.9-3.2c-2.2-.8-4.3-1.6-6.3-2.2-1.4-.4-2.7-.9-3.8-1.3a15.50252,15.50252,0,0,1-2.9-1.4,4.7118,4.7118,0,0,1-2.4-4.3,5.09853,5.09853,0,0,1,.8-2.9,5.77542,5.77542,0,0,1,2-1.8,8.2474,8.2474,0,0,1,2.6-1,14.15366,14.15366,0,0,1,2.9-.2A14.44788,14.44788,0,0,1,221,54.3Z" transform="translate(0.09998 0.00002)"/><path class="cls-1" d="M68.5,104.8a43.63481,43.63481,0,0,0,16-5.2c12.1-6.8,19.1-18.4,19.7-32.7l.1-1.2h16.8a49.59146,49.59146,0,0,0-9.1-23L94.8,53.6A27.0024,27.0024,0,0,1,96.7,80C92,90.8,80.9,100.2,68.5,104.8" transform="translate(0.09998 0.00002)"/><path class="cls-1" d="M121.3,68.2H106.7c-1,14.5-8.6,26.7-21,33.6a47.85506,47.85506,0,0,1-23.4,5.9,54.27825,54.27825,0,0,1-19.1-3.5,45.57674,45.57674,0,0,0,24.6,7.2h.1a42.967,42.967,0,0,0,37.7-22.3l.7-1.2,9.8,6.2a49.65353,49.65353,0,0,0,5.4-22.4c-.1-1.1-.1-2.3-.2-3.5" transform="translate(0.09998 0.00002)"/><path class="cls-1" d="M67.9,114h0c-15.7,0-30.4-7.8-40.9-21.1a49.5822,49.5822,0,0,0,87.9,3.6l-7.6-4.8A45.63685,45.63685,0,0,1,67.9,114" transform="translate(0.09998 0.00002)"/><path class="cls-1" d="M71.8,124A52.2,52.2,0,1,1,124,71.8h0A52.17342,52.17342,0,0,1,71.85313,124q-.02656,0-.05313,0h0m0-124a71.85,71.85,0,1,0,71.8,71.9v-.1A71.74124,71.74124,0,0,0,71.91757,0Q71.85879,0,71.8,0" transform="translate(0.09998 0.00002)"/><path d="M660.8,44.3V42.4h1.1a2.92039,2.92039,0,0,1,.9.2.5688.5688,0,0,1,.4007.69753L663.2,43.3a.89079.89079,0,0,1-.5.8,3.55286,3.55286,0,0,1-1,.2ZM659.6,48h1.2V45.2h.8l1.5,2.8h1.5l-1.8-2.9a2.38337,2.38337,0,0,0,1.1-.6,1.59406,1.59406,0,0,0,.4-1.2,1.763,1.763,0,0,0-.8-1.5,1.13544,1.13544,0,0,0-.8-.3,2.76839,2.76839,0,0,0-.9-.1h-2.2Zm-2.3-5.2a4.73806,4.73806,0,0,1,2.6-2.6,5.25579,5.25579,0,0,1,3.9,0,4.18835,4.18835,0,0,1,1.6,1.1,4.9969,4.9969,0,0,1,1.4,3.5,4.05732,4.05732,0,0,1-.4,1.9,4.91734,4.91734,0,0,1-2.6,2.7,5.25579,5.25579,0,0,1-3.9,0,4.18835,4.18835,0,0,1-1.6-1.1,5.714,5.714,0,0,1-1.1-1.6,4.33373,4.33373,0,0,1-.4-1.9,5.87042,5.87042,0,0,1,.5-2m-.8,4.2a5.78245,5.78245,0,0,0,5.4,3.5,6.06952,6.06952,0,0,0,4.2-1.7,7.48568,7.48568,0,0,0,1.3-1.8,6.10306,6.10306,0,0,0,0-4.6,4.62894,4.62894,0,0,0-1.3-1.8,4.73785,4.73785,0,0,0-1.9-1.2,5.54,5.54,0,0,0-4.6,0,7.60665,7.60665,0,0,0-1.9,1.2,6.40407,6.40407,0,0,0-1.3,1.9,5.43957,5.43957,0,0,0,.1,4.5" transform="translate(0.09998 0.00002)"/></svg>